<?xml version="1.0" standalone="no"?>
<!DOCTYPE svg PUBLIC "-//W3C//DTD SVG 20010904//EN"
 "http://www.w3.org/TR/2001/REC-SVG-20010904/DTD/svg10.dtd">
<svg version="1.0" xmlns="http://www.w3.org/2000/svg"
 width="512.000000pt" height="512.000000pt" viewBox="0 0 512.000000 512.000000"
 preserveAspectRatio="xMidYMid meet">

<g transform="translate(0.000000,512.000000) scale(0.100000,-0.100000)"
fill="#000000" stroke="none">
<path d="M1900 4810 c-295 -34 -659 -165 -885 -318 -83 -56 -103 -88 -81 -130
31 -60 61 -56 182 19 188 119 419 212 639 259 141 30 423 39 560 17 128 -21
258 -58 360 -104 89 -40 124 -44 205 -19 107 33 242 4 341 -75 l40 -32 -75
-69 c-144 -133 -253 -307 -296 -474 -31 -117 -29 -291 5 -409 6 -19 -1 -22
-57 -34 -96 -19 -263 -77 -364 -126 -372 -180 -672 -520 -806 -915 -58 -170
-93 -389 -87 -545 3 -78 3 -81 -34 -135 -60 -89 -80 -159 -81 -274 l-1 -98
-80 6 c-153 13 -324 58 -468 124 l-77 35 -77 -23 c-58 -17 -92 -21 -142 -18
-229 17 -395 243 -335 458 25 93 22 123 -24 231 -176 410 -143 922 91 1388 89
175 177 303 322 466 90 102 99 125 66 166 -13 17 -29 23 -56 23 -35 0 -45 -7
-102 -69 -391 -427 -603 -969 -579 -1480 9 -203 48 -384 120 -553 31 -74 31
-79 18 -122 -20 -65 -19 -203 2 -275 60 -203 225 -347 432 -377 69 -10 94 -9
168 5 l87 18 91 -36 c169 -67 401 -115 556 -115 55 0 59 -2 88 -39 62 -81 144
-136 246 -166 52 -15 61 -22 127 -104 213 -267 522 -462 861 -545 289 -70 585
-57 880 38 58 18 148 46 200 60 205 59 412 186 567 349 98 104 193 241 193
280 0 41 -33 69 -78 65 -34 -3 -41 -10 -91 -83 -73 -108 -246 -279 -344 -339
-99 -62 -228 -117 -337 -146 -109 -28 -335 -38 -447 -20 -612 98 -1097 628
-1184 1295 -16 126 -6 395 20 506 113 494 436 847 879 960 328 84 665 18 982
-190 116 -76 308 -269 389 -390 114 -173 196 -366 243 -578 30 -132 32 -475 4
-593 -31 -134 -32 -145 -3 -174 48 -48 106 -23 127 55 42 156 60 410 41 574
-33 283 -130 555 -275 774 -31 47 -54 86 -52 88 2 2 25 19 51 38 168 119 358
360 486 613 68 136 78 172 56 206 -26 39 -309 176 -364 176 -13 0 -34 -10 -46
-23 l-22 -23 -62 19 c-53 16 -63 22 -68 47 -3 15 -14 35 -23 43 -20 18 -113
36 -232 45 l-85 7 -7 85 c-12 169 -61 374 -130 553 -44 114 -60 118 -243 56
-128 -43 -289 -116 -386 -175 l-59 -36 -57 52 c-99 91 -213 134 -353 132 -47
0 -105 -6 -130 -14 -43 -13 -48 -13 -122 18 -184 78 -355 113 -578 119 -91 2
-199 0 -240 -5z m2085 -374 c46 -173 59 -271 59 -451 0 -141 -4 -185 -22 -257
-26 -106 -67 -198 -122 -276 l-41 -59 -97 33 c-91 30 -270 64 -340 64 l-31 0
183 373 c101 204 223 453 272 551 l88 179 14 -33 c7 -18 24 -74 37 -124z m935
-836 c-119 -237 -284 -445 -448 -567 l-54 -40 -75 74 c-85 82 -210 180 -291
225 -39 22 -50 34 -42 42 8 8 902 320 933 325 4 0 -6 -26 -23 -59z m-2521
-507 c-8 -10 -33 -40 -57 -67 -147 -168 -256 -400 -313 -668 -33 -151 -33
-444 -1 -611 63 -334 217 -645 435 -882 158 -171 373 -316 587 -395 l55 -20
-70 6 c-389 32 -773 247 -1016 570 l-69 92 -59 10 c-113 20 -192 77 -240 173
-66 132 -45 270 57 381 25 27 26 31 27 200 2 197 18 299 70 454 99 296 279
542 534 728 68 50 81 56 60 29z"/>
<path d="M1905 4481 c-73 -30 -82 -132 -14 -166 43 -23 77 -18 110 14 47 48
38 116 -21 146 -32 17 -45 18 -75 6z"/>
<path d="M1469 4271 c-38 -39 -39 -80 0 -123 41 -46 92 -45 133 1 25 28 29 39
24 70 -12 79 -101 108 -157 52z"/>
<path d="M2128 4255 c-33 -18 -52 -72 -39 -107 16 -42 61 -71 101 -64 78 12
106 101 51 157 -33 32 -70 37 -113 14z"/>
<path d="M1753 4038 c-67 -18 -85 -97 -34 -149 53 -52 130 -33 150 38 19 68
-46 130 -116 111z"/>
<path d="M3260 3121 c-66 -8 -116 -27 -139 -55 -9 -11 -29 -15 -70 -14 -48 1
-68 -4 -128 -36 -86 -45 -106 -66 -106 -108 0 -35 32 -68 67 -68 11 0 53 17
93 37 47 25 75 35 82 28 14 -15 223 -712 219 -732 -2 -10 -10 -19 -19 -21 -16
-3 -587 351 -601 372 -12 17 -11 18 37 92 25 38 45 81 45 97 0 57 -78 89 -118
49 -59 -59 -113 -161 -114 -215 -1 -31 -8 -50 -29 -72 -62 -67 -99 -234 -99
-447 1 -176 19 -285 56 -342 21 -31 28 -54 29 -96 2 -69 50 -176 141 -313 74
-111 226 -270 282 -295 20 -9 50 -30 65 -45 37 -38 212 -120 312 -147 54 -15
122 -24 212 -27 148 -6 209 4 260 43 25 19 44 24 87 24 159 0 435 245 548 485
16 36 27 69 23 74 -3 6 5 27 19 48 43 65 67 188 73 368 6 199 -11 325 -53 389
-21 31 -28 54 -29 96 -5 187 -349 628 -491 630 -12 0 -25 10 -32 25 -17 37
-84 80 -180 115 -149 54 -306 75 -442 61z m241 -157 c93 -17 231 -67 249 -89
10 -12 -14 -75 -130 -336 -79 -176 -150 -323 -157 -326 -8 -3 -20 1 -28 8 -17
19 -228 716 -221 734 10 27 168 32 287 9z m505 -277 c45 -46 107 -122 139
-170 63 -97 118 -211 113 -235 -2 -11 -91 -42 -312 -109 -170 -51 -317 -93
-327 -93 -9 0 -19 7 -23 15 -5 13 263 633 287 663 19 24 43 11 123 -71z
m-1110 -493 c153 -97 287 -181 297 -188 9 -6 17 -21 17 -33 0 -17 -10 -25 -47
-37 -136 -43 -581 -176 -591 -176 -19 0 -30 38 -42 152 -13 113 -8 220 16 343
19 94 28 115 53 115 10 0 143 -79 297 -176z m1424 -99 c21 -54 32 -244 21
-349 -15 -134 -41 -230 -64 -234 -16 -3 -604 359 -619 382 -18 27 23 45 309
132 164 51 308 92 321 93 15 1 25 -7 32 -24z m-842 -31 c43 -25 65 -63 70
-120 11 -130 -116 -191 -206 -100 -62 61 -55 176 12 217 38 23 89 24 124 3z
m-205 -278 c5 -13 -273 -650 -293 -670 -39 -39 -259 220 -341 399 -16 37 -29
74 -27 83 2 13 80 40 303 109 165 50 312 92 326 92 15 1 29 -5 32 -13z m615
-217 c303 -190 322 -204 322 -230 0 -23 -42 -88 -104 -163 -50 -59 -141 -132
-219 -176 -52 -29 -60 -31 -73 -18 -15 14 -224 687 -224 719 0 19 9 29 27 29
8 0 129 -73 271 -161z m-450 89 c5 -7 58 -172 117 -367 94 -312 105 -355 92
-368 -24 -24 -231 -20 -332 7 -90 23 -205 73 -205 89 0 14 269 622 283 639 5
6 15 12 22 12 7 0 17 -6 23 -12z"/>
</g>
</svg>
